<svg width="160" height="43" viewBox="0 0 160 43" fill="none" xmlns="http://www.w3.org/2000/svg">
<path d="M5.824 10.864V34H2.688V10.864H5.824ZM13.4273 34H10.7073V10.448H13.7153V21.04C14.7393 18.992 16.8513 17.904 19.4113 17.904C23.8913 17.904 26.5793 21.424 26.5793 26.256C26.5793 30.992 23.7633 34.384 19.2193 34.384C16.7552 34.384 14.6753 33.296 13.6513 31.152L13.4273 34ZM13.7473 26.128C13.7473 29.392 15.6033 31.664 18.6753 31.664C21.7473 31.664 23.5713 29.36 23.5713 26.128C23.5713 22.928 21.7473 20.624 18.6753 20.624C15.6033 20.624 13.7473 22.928 13.7473 26.128ZM36.6468 34.384C32.0388 34.384 28.8708 31.056 28.8708 26.192C28.8708 21.296 31.9748 17.904 36.5188 17.904C40.9668 17.904 43.8787 20.976 43.8787 25.616V26.736L31.7828 26.768C32.0068 30.064 33.7348 31.888 36.7108 31.888C39.0468 31.888 40.5828 30.928 41.0948 29.136H43.9108C43.1428 32.496 40.5188 34.384 36.6468 34.384ZM36.5188 20.432C33.8948 20.432 32.2308 22 31.8468 24.752H40.8708C40.8708 22.16 39.1748 20.432 36.5188 20.432ZM56.1985 18.224V20.976H54.8545C52.0065 20.976 50.2465 22.704 50.2465 25.712V34H47.2385V18.384H50.0545L50.2465 20.752C50.8865 19.12 52.4545 18.032 54.5985 18.032C55.1425 18.032 55.5905 18.096 56.1985 18.224ZM62.9708 34.384C59.6108 34.384 57.6268 32.496 57.6268 29.648C57.6268 26.768 59.7708 24.976 63.4508 24.688L68.3788 24.304V23.856C68.3788 21.232 66.8108 20.304 64.6988 20.304C62.1708 20.304 60.7308 21.424 60.7308 23.312H58.1068C58.1068 20.048 60.7948 17.904 64.8268 17.904C68.6988 17.904 71.3228 19.952 71.3228 24.176V34H68.7628L68.4428 31.472C67.6428 33.264 65.4988 34.384 62.9708 34.384ZM63.8348 32.048C66.6828 32.048 68.4108 30.192 68.4108 27.248V26.416L64.4108 26.736C61.7548 26.992 60.6668 28.016 60.6668 29.552C60.6668 31.216 61.8828 32.048 63.8348 32.048ZM86.3045 18.352H89.2805V34H86.5925L86.2725 31.632C85.3765 33.264 83.2965 34.384 80.9925 34.384C77.3445 34.384 75.2965 31.92 75.2965 28.08V18.352H78.3045V27.088C78.3045 30.448 79.7445 31.728 82.0485 31.728C84.8005 31.728 86.3045 29.968 86.3045 26.608V18.352ZM98.0608 34H95.0528V20.88H91.9808V18.352H95.0528V13.456H98.0608V18.352H101.133V20.88H98.0608V34ZM123.572 34.384C122.324 34.384 121.268 33.36 121.268 32.144C121.268 30.896 122.324 29.872 123.572 29.872C124.788 29.872 125.844 30.896 125.844 32.144C125.844 33.36 124.788 34.384 123.572 34.384ZM134.44 34.384C131.08 34.384 129.096 32.496 129.096 29.648C129.096 26.768 131.24 24.976 134.92 24.688L139.848 24.304V23.856C139.848 21.232 138.28 20.304 136.168 20.304C133.64 20.304 132.2 21.424 132.2 23.312H129.576C129.576 20.048 132.264 17.904 136.296 17.904C140.168 17.904 142.792 19.952 142.792 24.176V34H140.232L139.912 31.472C139.112 33.264 136.968 34.384 134.44 34.384ZM135.304 32.048C138.152 32.048 139.88 30.192 139.88 27.248V26.416L135.88 26.736C133.224 26.992 132.136 28.016 132.136 29.552C132.136 31.216 133.352 32.048 135.304 32.048ZM158.189 34H145.997V31.568L154.445 20.88H145.997V18.352H158.189V20.816L149.677 31.472H158.189V34Z" fill="#202F3A"/>
<g clip-path="url(#clip0_7183_333)">
<path d="M120.791 25.5031C120.791 30.6391 116.635 34.7953 111.499 34.7953C106.363 34.7953 102.207 30.6391 102.207 25.5031C102.207 20.3672 106.363 16.2109 111.499 16.2109C116.635 16.2109 120.791 20.3672 120.791 25.5031ZM111.499 16.775C106.66 16.775 102.771 20.6641 102.771 25.5031C102.771 30.3422 106.69 34.2313 111.499 34.2313C116.338 34.2313 120.227 30.3125 120.227 25.5031C120.227 20.6641 116.338 16.775 111.499 16.775Z" fill="url(#paint0_linear_7183_333)"/>
<path d="M111.502 16.7734C106.662 16.7734 102.773 20.6625 102.773 25.5016C102.773 30.3406 106.692 34.2297 111.502 34.2297C116.341 34.2297 120.23 30.3109 120.23 25.5016C120.23 20.6625 116.341 16.7734 111.502 16.7734ZM111.502 33.6656C106.989 33.6656 103.337 30.0141 103.337 25.5016C103.337 20.9891 106.989 17.3375 111.502 17.3375C116.014 17.3375 119.666 20.9891 119.666 25.5016C119.666 30.0141 116.014 33.6656 111.502 33.6656Z" fill="url(#paint1_linear_7183_333)"/>
<path opacity="0.4" d="M111.5 34.7922C116.636 34.7922 120.792 30.6359 120.792 25.5C120.792 20.3641 116.636 16.2078 111.5 16.2078C106.364 16.2078 102.208 20.3641 102.208 25.5C102.208 30.6359 106.364 34.7922 111.5 34.7922ZM111.5 16C116.725 16 121 20.275 121 25.5C121 30.725 116.725 35 111.5 35C106.275 35 102 30.725 102 25.5C102 20.275 106.275 16 111.5 16Z" fill="url(#paint2_linear_7183_333)"/>
<path d="M102.652 25.5328C102.652 20.6641 106.601 16.6562 111.499 16.6562C116.398 16.6562 120.346 20.6344 120.346 25.5328C120.346 30.4016 116.398 34.35 111.499 34.35C106.601 34.35 102.652 30.4016 102.652 25.5328ZM105.413 19.4172C103.84 20.9906 102.86 23.1578 102.86 25.5328C102.86 27.9078 103.84 30.075 105.384 31.6188C106.957 33.1625 109.124 34.1422 111.499 34.1422C113.874 34.1422 116.041 33.1922 117.585 31.6188C119.159 30.075 120.109 27.9078 120.109 25.5328C120.109 23.1578 119.129 20.9906 117.585 19.4172C116.041 17.8438 113.874 16.8641 111.499 16.8641C109.124 16.8641 106.957 17.8438 105.413 19.4172Z" fill="white"/>
<path opacity="0.4" d="M111.498 33.6922C109.302 33.6922 107.253 32.8313 105.709 31.2875C104.166 29.7438 103.305 27.6953 103.305 25.4984C103.305 23.3016 104.166 21.2531 105.709 19.7094C107.253 18.1656 109.302 17.3047 111.498 17.3047C113.695 17.3047 115.744 18.1656 117.288 19.7094C118.831 21.2531 119.692 23.3016 119.692 25.4984C119.692 27.6953 118.831 29.7438 117.288 31.2875C115.744 32.8313 113.695 33.6922 111.498 33.6922ZM111.498 33.4547C113.606 33.4547 115.625 32.6234 117.109 31.1391C118.623 29.625 119.425 27.6359 119.425 25.5281C119.425 23.4203 118.594 21.4016 117.109 19.9172C115.595 18.4031 113.606 17.6016 111.498 17.6016C109.391 17.6016 107.372 18.4328 105.888 19.9172C104.373 21.3719 103.542 23.3906 103.542 25.4984C103.542 27.6063 104.373 29.625 105.858 31.1094C107.372 32.6234 109.391 33.4547 111.498 33.4547Z" fill="url(#paint3_linear_7183_333)"/>
<path d="M118.715 29.3609C118.566 29.2422 112.837 24.7 112.837 24.7L111.501 17.0703C111.412 17.1 111.293 17.1891 111.234 17.3078L110.284 24.7297L104.376 29.2719C104.376 29.2719 104.257 29.4203 104.198 29.5094C104.168 29.5687 104.168 29.6578 104.168 29.7469L111.471 26.7484L118.774 29.7469C118.834 29.5984 118.774 29.45 118.715 29.3609Z" fill="white"/>
<path d="M111.559 25.7373L111.5 27.1029L118.209 29.8045C118.447 29.9232 118.625 29.8639 118.803 29.7451L111.648 25.7076C111.619 25.6779 111.559 25.7076 111.559 25.7373Z" fill="#565F64"/>
<path d="M111.559 25.7373C111.559 25.7373 111.945 26.4201 112.39 26.8951C113.013 27.5779 113.845 28.0529 113.845 28.0529L118.209 29.8045C118.446 29.9232 118.624 29.8639 118.802 29.7451L111.648 25.7076C111.618 25.6779 111.559 25.7076 111.559 25.7373Z" fill="url(#paint4_linear_7183_333)"/>
<path d="M118.772 29.4766C118.772 29.4469 118.742 29.4172 118.712 29.3578L112.597 24.875L111.766 25.4094C111.766 25.4094 111.825 25.4391 111.855 25.4094C111.944 25.3797 112.122 25.35 112.3 25.4094C112.448 25.4688 118.772 29.5063 118.772 29.4766C118.772 29.5063 118.772 29.5063 118.772 29.4766Z" fill="#A4AAAE" fill-opacity="0.6"/>
<path d="M118.565 29.2078L112.865 24.6953L112.598 24.8734L118.713 29.3859C118.684 29.3266 118.624 29.2672 118.565 29.2078Z" fill="#333E46"/>
<path d="M111.647 25.2953L111.617 25.325C111.617 25.325 111.617 25.3844 111.677 25.3547C111.706 25.325 112.567 24.8797 112.864 24.7016L111.825 17.5766C111.795 17.3094 111.677 17.1906 111.469 17.1016L111.587 25.3547L111.647 25.2953Z" fill="#565F64"/>
<path d="M111.142 17.5766V17.9625L110.489 24.5234C110.489 24.6125 110.519 24.7016 110.608 24.7609L110.994 25.0578L111.261 17.8141L111.291 17.25C111.202 17.3094 111.172 17.4281 111.142 17.5766ZM110.786 25.1766L110.43 24.8797L104.403 29.2437C104.403 29.2437 104.225 29.3625 104.195 29.4812L104.403 29.3625L110.727 25.3844C110.845 25.325 110.875 25.2656 110.786 25.1766Z" fill="#A4AAAE" fill-opacity="0.6"/>
<path d="M111.412 25.7373C111.412 25.7076 111.382 25.6779 111.352 25.7076L104.168 29.7748C104.346 29.8935 104.524 29.9232 104.762 29.8342L111.471 27.1326L111.412 25.7373Z" fill="#565F64"/>
<path d="M111.617 25.3203C111.617 25.3203 111.617 25.35 111.647 25.35H111.677C111.706 25.3203 112.567 24.875 112.864 24.6969L112.745 23.8359L111.825 17.5719C111.825 17.4531 111.795 17.3641 111.736 17.3047C111.736 17.3047 112.181 23.3016 112.181 23.9547C112.181 24.8156 111.617 25.3203 111.617 25.3203Z" fill="url(#paint5_linear_7183_333)"/>
<path d="M111.412 25.7373C111.412 25.7076 111.382 25.6779 111.352 25.7076L104.168 29.7748C104.346 29.8935 104.524 29.9232 104.762 29.8342L111.471 27.1326L111.412 25.7373Z" fill="url(#paint6_linear_7183_333)" fill-opacity="0.8"/>
<path opacity="0.8" d="M104.76 29.8047L111.47 27.1031L111.41 25.7969C111.291 26.1531 111.084 26.5391 110.52 26.8359C110.104 27.0734 106.126 29.0328 104.701 29.7156C104.612 29.775 104.493 29.8047 104.434 29.8344C104.552 29.8937 104.641 29.8641 104.76 29.8047Z" fill="url(#paint7_linear_7183_333)"/>
<path d="M111.647 25.2953L111.617 25.325C111.617 25.325 111.617 25.3844 111.677 25.3547C111.706 25.325 112.567 24.8797 112.864 24.7016L111.825 17.5766C111.795 17.3094 111.677 17.1906 111.469 17.1016L111.587 25.3547L111.647 25.2953Z" fill="url(#paint8_linear_7183_333)"/>
<path d="M111.647 25.2953L111.617 25.325C111.617 25.325 111.617 25.3844 111.677 25.3547C111.706 25.325 112.567 24.8797 112.864 24.7016L111.825 17.5766C111.795 17.3094 111.677 17.1906 111.469 17.1016L111.587 25.3547L111.647 25.2953Z" fill="url(#paint9_linear_7183_333)"/>
<path d="M103.513 29.1813C103.305 28.7063 102.118 26.3906 103.424 21.9375H102.92C102.652 22.8281 102.445 23.3625 102.326 24.1641C102.326 24.1641 102.266 24.4609 102.237 24.7875C102.207 25.1141 102.207 25.2922 102.207 25.5C102.207 27.2813 102.652 28.3203 102.652 28.3203C103.127 29.8047 103.959 31.1406 105.087 32.15C106.066 33.0109 107.58 33.6641 108.827 33.9016C108.62 33.8719 105.057 32.3578 103.513 29.1813Z" fill="url(#paint10_linear_7183_333)"/>
<path d="M111.619 25.6764H111.352C111.381 25.6764 111.411 25.6764 111.411 25.706L111.47 27.0717H111.5L111.559 25.706C111.559 25.6764 111.589 25.6467 111.619 25.6764Z" fill="url(#paint11_linear_7183_333)"/>
<path d="M114.469 16.6797C117.586 17.8672 120.525 21.1328 120.525 25.2594C120.525 30.2469 116.547 34.3141 111.5 34.3141V34.7891C116.547 34.7891 120.792 30.6328 120.792 25.4969C120.792 21.4 118.18 17.9563 114.469 16.6797Z" fill="url(#paint12_linear_7183_333)"/>
<path d="M119.456 21.9984C117.378 17.2187 112.687 16.9516 112.42 16.9219H112.391C115.983 17.575 118.269 19.9203 119.07 22.3844V22.4141C119.427 23.3641 119.605 24.3734 119.634 25.4719C119.664 26.5109 119.427 27.6687 118.981 28.7375C118.952 28.8859 118.922 29.0641 118.892 29.0641H119.367C120.792 26.3922 120.169 23.6906 119.456 21.9984Z" fill="url(#paint13_linear_7183_333)"/>
<path d="M102.652 25.5328C102.652 20.6641 106.601 16.6562 111.499 16.6562C116.398 16.6562 120.346 20.6344 120.346 25.5328C120.346 30.4016 116.398 34.35 111.499 34.35C106.601 34.35 102.652 30.4016 102.652 25.5328ZM105.413 19.4172C103.84 20.9906 102.86 23.1578 102.86 25.5328C102.86 27.9078 103.84 30.075 105.384 31.6188C106.957 33.1625 109.124 34.1422 111.499 34.1422C113.874 34.1422 116.041 33.1922 117.585 31.6188C119.159 30.075 120.109 27.9078 120.109 25.5328C120.109 23.1578 119.129 20.9906 117.585 19.4172C116.041 17.8438 113.874 16.8641 111.499 16.8641C109.124 16.8641 106.957 17.8438 105.413 19.4172Z" fill="#FBFBFB"/>
<path d="M104.344 29.2984L110.4 24.9344C110.727 25.1125 111.261 25.35 111.32 25.35C111.38 25.3797 111.38 25.3203 111.38 25.3203L110.637 24.6969C110.548 24.6375 110.519 24.5484 110.519 24.4594L111.231 17.3047C111.202 17.3344 111.202 17.3938 111.172 17.4234C111.142 17.4828 111.142 17.5125 111.142 17.5719L110.103 24.7266L104.403 29.2094C104.373 29.2391 104.344 29.2687 104.344 29.2984Z" fill="#333F47"/>
</g>
<defs>
<linearGradient id="paint0_linear_7183_333" x1="104.374" y1="19.5353" x2="118.625" y2="31.4709" gradientUnits="userSpaceOnUse">
<stop stop-color="white"/>
<stop offset="0.1" stop-color="#CDD0D0"/>
<stop offset="0.2" stop-color="#A5ACAF"/>
<stop offset="0.3" stop-color="#98A0A4"/>
<stop offset="0.4" stop-color="#828A8F"/>
<stop offset="0.5" stop-color="#667075"/>
<stop offset="0.6" stop-color="#535C63"/>
<stop offset="0.7" stop-color="#475158"/>
<stop offset="0.8" stop-color="#434D54"/>
<stop offset="1" stop-color="#475157"/>
</linearGradient>
<linearGradient id="paint1_linear_7183_333" x1="104.813" y1="19.8785" x2="118.173" y2="31.1003" gradientUnits="userSpaceOnUse">
<stop stop-color="#0B1F2A"/>
<stop offset="0.2" stop-color="#333F47"/>
<stop offset="0.5" stop-color="#81898D"/>
<stop offset="0.7" stop-color="#B3B8B8"/>
<stop offset="0.8" stop-color="#DEE0DD"/>
<stop offset="1" stop-color="#FBFBFB"/>
</linearGradient>
<linearGradient id="paint2_linear_7183_333" x1="114.747" y1="34.425" x2="108.245" y2="16.5534" gradientUnits="userSpaceOnUse">
<stop stop-color="#E1E3E1"/>
<stop offset="0.1" stop-color="#C1C5C4"/>
<stop offset="0.3" stop-color="#9BA1A2"/>
<stop offset="0.5" stop-color="#7D8487"/>
<stop offset="0.7" stop-color="#687074" stop-opacity="0"/>
<stop offset="0.8" stop-color="#5B6469" stop-opacity="0"/>
<stop offset="1" stop-color="#576065" stop-opacity="0"/>
</linearGradient>
<linearGradient id="paint3_linear_7183_333" x1="107.402" y1="18.4034" x2="115.595" y2="32.5935" gradientUnits="userSpaceOnUse">
<stop stop-color="#E1E3E1"/>
<stop offset="0.1" stop-color="#C1C5C4"/>
<stop offset="0.3" stop-color="#9BA1A2"/>
<stop offset="0.5" stop-color="#7D8487"/>
<stop offset="0.7" stop-color="#687074" stop-opacity="0"/>
<stop offset="0.8" stop-color="#5B6469" stop-opacity="0"/>
<stop offset="1" stop-color="#576065" stop-opacity="0"/>
</linearGradient>
<linearGradient id="paint4_linear_7183_333" x1="115.207" y1="27.6946" x2="114.702" y2="28.5258" gradientUnits="userSpaceOnUse">
<stop stop-color="#27343C"/>
<stop offset="1" stop-color="#00111E" stop-opacity="0"/>
</linearGradient>
<linearGradient id="paint5_linear_7183_333" x1="113.749" y1="24.6411" x2="112.917" y2="23.3051" gradientUnits="userSpaceOnUse">
<stop offset="0.1" stop-color="#02131F"/>
<stop offset="0.9" stop-color="#02131F" stop-opacity="0"/>
</linearGradient>
<linearGradient id="paint6_linear_7183_333" x1="111.495" y1="26.787" x2="110.249" y2="27.1433" gradientUnits="userSpaceOnUse">
<stop offset="0.2" stop-color="#02131F"/>
<stop offset="0.9" stop-color="#02131F" stop-opacity="0"/>
</linearGradient>
<linearGradient id="paint7_linear_7183_333" x1="108.172" y1="28.4402" x2="107.993" y2="27.9949" gradientUnits="userSpaceOnUse">
<stop stop-color="#02131F"/>
<stop offset="0.1" stop-color="#02131F"/>
<stop offset="1" stop-color="#02131F" stop-opacity="0"/>
</linearGradient>
<linearGradient id="paint8_linear_7183_333" x1="112.568" y1="21.1135" x2="111.558" y2="21.2323" gradientUnits="userSpaceOnUse">
<stop offset="0.3" stop-color="#02131F"/>
<stop offset="0.8" stop-color="#02131F" stop-opacity="0"/>
</linearGradient>
<linearGradient id="paint9_linear_7183_333" x1="112.599" y1="21.0966" x2="111.916" y2="21.1857" gradientUnits="userSpaceOnUse">
<stop offset="0.4" stop-color="#27343C"/>
<stop offset="1" stop-color="#3B474E" stop-opacity="0"/>
</linearGradient>
<linearGradient id="paint10_linear_7183_333" x1="101.892" y1="25.7467" x2="110.175" y2="30.5264" gradientUnits="userSpaceOnUse">
<stop stop-color="#25323B" stop-opacity="0"/>
<stop offset="0.1" stop-color="#27343C"/>
</linearGradient>
<linearGradient id="paint11_linear_7183_333" x1="111.485" y1="27.1014" x2="111.485" y2="25.6764" gradientUnits="userSpaceOnUse">
<stop offset="0.3" stop-color="#A5ABAF"/>
<stop offset="1" stop-color="#A5ABAF" stop-opacity="0"/>
</linearGradient>
<linearGradient id="paint12_linear_7183_333" x1="116.146" y1="16.6797" x2="116.146" y2="34.7891" gradientUnits="userSpaceOnUse">
<stop stop-color="#6B7378"/>
<stop offset="0.2" stop-color="#333F47"/>
<stop offset="0.5" stop-color="#27343C"/>
<stop offset="0.8" stop-color="#333F47"/>
<stop offset="1" stop-color="#434D54"/>
</linearGradient>
<linearGradient id="paint13_linear_7183_333" x1="119.008" y1="18.4042" x2="115" y2="24.2823" gradientUnits="userSpaceOnUse">
<stop offset="0.7" stop-color="#49545B"/>
<stop offset="0.8" stop-color="white" stop-opacity="0"/>
</linearGradient>
<clipPath id="clip0_7183_333">
<rect width="19" height="19" fill="white" transform="translate(102 16)"/>
</clipPath>
</defs>
</svg>
